<?xml version="1.0" encoding="utf-8"?>
<!-- Generator: Adobe Illustrator 15.0.2, SVG Export Plug-In . SVG Version: 6.00 Build 0)  -->
<!DOCTYPE svg PUBLIC "-//W3C//DTD SVG 1.1//EN" "http://www.w3.org/Graphics/SVG/1.1/DTD/svg11.dtd">
<svg version="1.1" id="Layer_1" xmlns="http://www.w3.org/2000/svg" xmlns:xlink="http://www.w3.org/1999/xlink" x="0px" y="0px"
	 width="15px" height="15px" viewBox="0 0 15 15" enable-background="new 0 0 15 15" xml:space="preserve">
<circle fill="none" cx="7.5" cy="7.5" r="7.5"/>
<path fill="#5A646E" d="M7.5,11C5.57,11,4,9.43,4,7.5C4,5.57,5.57,4,7.5,4C9.43,4,11,5.57,11,7.5C11,9.43,9.43,11,7.5,11z M7.5,5
	C6.122,5,5,6.122,5,7.5C5,8.879,6.122,10,7.5,10C8.879,10,10,8.879,10,7.5C10,6.122,8.879,5,7.5,5z M8.332,15H6.707
	c-0.247,0-0.457-0.18-0.494-0.424l-0.285-1.84c-0.362-0.107-0.688-0.242-0.997-0.411L3.447,13.43
	c-0.198,0.146-0.473,0.129-0.649-0.045L1.641,12.25c-0.177-0.173-0.2-0.45-0.054-0.65l1.093-1.502
	C2.502,9.777,2.363,9.45,2.263,9.115L0.424,8.834C0.18,8.797,0,8.587,0,8.34V6.716c0-0.245,0.178-0.454,0.42-0.494l1.841-0.299
	c0.098-0.335,0.234-0.665,0.401-0.977L1.553,3.44C1.406,3.242,1.427,2.966,1.601,2.792l1.154-1.159
	c0.175-0.175,0.452-0.195,0.65-0.051l1.497,1.099c0.32-0.168,0.649-0.303,0.985-0.404l0.269-1.848C6.191,0.182,6.401,0,6.65,0h1.642
	c0.247,0,0.456,0.18,0.494,0.424l0.282,1.832c0.338,0.096,0.666,0.23,0.996,0.404l1.487-1.091c0.198-0.145,0.472-0.125,0.646,0.046
	l1.155,1.133c0.18,0.174,0.201,0.451,0.057,0.651l-1.096,1.505c0.164,0.306,0.305,0.637,0.412,0.979l1.849,0.284
	C14.82,6.205,15,6.414,15,6.661v1.621c0,0.245-0.178,0.454-0.42,0.493l-1.842,0.301c-0.1,0.339-0.235,0.67-0.4,0.979l1.111,1.504
	c0.148,0.199,0.126,0.479-0.053,0.653l-1.158,1.136c-0.172,0.17-0.442,0.192-0.641,0.049l-1.51-1.078
	c-0.312,0.168-0.643,0.307-0.979,0.406l-0.283,1.853C8.789,14.82,8.579,15,8.332,15z M7.136,14h0.767l0.269-1.753
	c0.031-0.204,0.186-0.367,0.387-0.412c0.451-0.101,0.897-0.284,1.291-0.533c0.172-0.108,0.395-0.104,0.561,0.017l1.43,1.022
	l0.551-0.538l-1.05-1.417c-0.122-0.165-0.131-0.389-0.021-0.562c0.246-0.391,0.431-0.84,0.533-1.299
	c0.045-0.198,0.205-0.353,0.406-0.383L14,7.857V7.09l-1.738-0.267c-0.197-0.03-0.357-0.175-0.408-0.369
	c-0.123-0.476-0.312-0.931-0.556-1.318c-0.106-0.173-0.1-0.394,0.021-0.558L12.35,3.16l-0.547-0.534l-1.406,1.031
	c-0.164,0.12-0.381,0.13-0.555,0.025C9.402,3.417,8.971,3.243,8.523,3.149C8.318,3.107,8.164,2.942,8.132,2.736L7.863,1h-0.78
	L6.829,2.746c-0.03,0.203-0.181,0.368-0.382,0.415c-0.454,0.106-0.9,0.288-1.326,0.542C4.95,3.806,4.732,3.796,4.569,3.677
	L3.16,2.643l-0.548,0.55l1.049,1.425c0.122,0.165,0.13,0.388,0.021,0.562c-0.25,0.398-0.433,0.844-0.53,1.291
	c-0.043,0.2-0.205,0.354-0.408,0.387L1,7.141v0.77l1.74,0.266c0.205,0.031,0.369,0.188,0.413,0.388
	C3.25,9.011,3.429,9.434,3.7,9.855c0.111,0.174,0.104,0.396-0.017,0.562l-1.034,1.42l0.543,0.533l1.409-1.051
	c0.167-0.122,0.394-0.133,0.57-0.02c0.387,0.25,0.806,0.424,1.318,0.549c0.197,0.047,0.345,0.209,0.376,0.409L7.136,14z"/>
</svg>
