<?xml version="1.0" encoding="utf-8"?>
<!-- Generator: Adobe Illustrator 15.0.2, SVG Export Plug-In . SVG Version: 6.00 Build 0)  -->
<!DOCTYPE svg PUBLIC "-//W3C//DTD SVG 1.1//EN" "http://www.w3.org/Graphics/SVG/1.1/DTD/svg11.dtd">
<svg version="1.1" id="Layer_1" xmlns="http://www.w3.org/2000/svg" xmlns:xlink="http://www.w3.org/1999/xlink" x="0px" y="0px"
	 width="15px" height="15px" viewBox="0 0 15 15" enable-background="new 0 0 15 15" xml:space="preserve">
<circle fill="none" cx="7.5" cy="7.5" r="7.5"/>
<g>
	<path fill="#F8A139" d="M3.258,1.757c-0.384,0-0.768,0.146-1.062,0.44c-0.587,0.586-0.585,1.535,0,2.121
		c0.293,0.293,0.677,0.439,1.061,0.439c0.384,0,0.768-0.146,1.061-0.439c0.587-0.586,0.585-1.536,0.001-2.122
		C4.025,1.903,3.643,1.757,3.258,1.757"/>
	<path fill="#F9AF56" d="M1.5,6C0.672,6,0,6.671,0,7.5S0.672,9,1.5,9S3,8.329,3,7.5S2.328,6,1.5,6"/>
	<path fill="#FABB71" d="M3.257,10.244c-0.384,0-0.768,0.146-1.061,0.438c-0.585,0.586-0.587,1.535,0.001,2.123
		c0.293,0.293,0.676,0.438,1.06,0.438c0.384,0,0.769-0.146,1.062-0.438c0.584-0.587,0.586-1.535,0-2.121
		C4.025,10.391,3.641,10.244,3.257,10.244"/>
	<path fill="#FBC98E" d="M7.5,12C6.671,12,6,12.672,6,13.5S6.671,15,7.5,15S9,14.328,9,13.5S8.329,12,7.5,12"/>
	<path fill="#FCD6A9" d="M11.744,10.242c-0.385,0-0.77,0.146-1.062,0.439c-0.586,0.586-0.586,1.534,0,2.12
		c0.293,0.292,0.678,0.438,1.062,0.438c0.384,0,0.77-0.146,1.062-0.438c0.586-0.587,0.586-1.534,0-2.12
		C12.512,10.389,12.127,10.242,11.744,10.242"/>
	<path fill="#FDE4C7" d="M13.5,6C12.672,6,12,6.671,12,7.5S12.672,9,13.5,9S15,8.329,15,7.5S14.328,6,13.5,6"/>
	<path fill="#FEF1E2" d="M11.742,1.758c-0.385,0-0.768,0.146-1.061,0.44c-0.586,0.585-0.586,1.534,0,2.121
		c0.293,0.292,0.676,0.439,1.061,0.439c0.384,0,0.768-0.146,1.061-0.439c0.586-0.585,0.586-1.536,0-2.121
		C12.51,1.904,12.126,1.758,11.742,1.758"/>
	<circle fill="#F7941E" cx="7.5" cy="1.5" r="1.5"/>
</g>
</svg>
