<svg xmlns="http://www.w3.org/2000/svg" viewBox="0 0 28 28"><title>1</title><path d="M14,13.44a1.89,1.89,0,1,0-1.9-1.89A1.9,1.9,0,0,0,14,13.44Zm0-3.16a1.27,1.27,0,1,1-1.28,1.27A1.27,1.27,0,0,1,14,10.28Z" style="fill:#ffffff"/><path d="M17.53,13.16A10.67,10.67,0,0,0,14.4,5.39a.5.5,0,0,0-.8,0,10.67,10.67,0,0,0-3.13,7.77c-.55.46-2.17,2.22-2.17,6.65a.38.38,0,0,0,.24.36.4.4,0,0,0,.15,0A.39.39,0,0,0,9,20.09c.56-.55,2.25-2,3.35-2h3.36c1.1,0,2.79,1.42,3.35,2a.41.41,0,0,0,.28.11.4.4,0,0,0,.15,0,.38.38,0,0,0,.24-.36c0-4.43-1.63-6.19-2.17-6.65ZM14,6a9.55,9.55,0,0,1,1.31,1.66H12.7A9.61,9.61,0,0,1,14,6ZM12.37,8.21h3.27a11.19,11.19,0,0,1,1.19,5.16c0,1.92-.43,3.34-1.25,4.09H12.42c-.82-.75-1.25-2.17-1.25-4.09a11.18,11.18,0,0,1,1.2-5.16Zm-.66,9.37A8.84,8.84,0,0,0,9,19.23,9.61,9.61,0,0,1,10.52,14,6.69,6.69,0,0,0,11.71,17.58Zm4.58,0A6.64,6.64,0,0,0,17.48,14a9.53,9.53,0,0,1,1.57,5.27,8.84,8.84,0,0,0-2.76-1.65Z" style="fill:#ffffff"/><path d="M14,19.14a.39.39,0,0,0-.4.39v2.88a.4.4,0,0,0,.8,0V19.53a.39.39,0,0,0-.4-.39Z" style="fill:#ffffff"/><path d="M15.59,19.14a.39.39,0,0,0-.4.39v1.88a.4.4,0,1,0,.79,0V19.53a.39.39,0,0,0-.39-.39Z" style="fill:#ffffff"/><path d="M12.41,19.14a.39.39,0,0,0-.39.39v1.88a.4.4,0,1,0,.79,0V19.53a.39.39,0,0,0-.4-.39Z" style="fill:#ffffff"/></svg>