<svg xmlns="http://www.w3.org/2000/svg" xmlns:xlink="http://www.w3.org/1999/xlink" width="128" height="128" viewBox="0 0 128 128"><title>Artboard 1</title><path d="M103.22,71.18a8.1,8.1,0,0,0-5.16-5.72,23.88,23.88,0,0,0-7-1.09H91a26.09,26.09,0,0,0-7.11,1.09,7.74,7.74,0,0,0-4.21,3.44A14.2,14.2,0,0,1,83,75.27l1,6.39a28.7,28.7,0,0,0,6.92.86,28.18,28.18,0,0,0,13.57-3.47Z" fill="transparent" stroke="#304050" stroke-miterlimit="10" stroke-width="4"/><path d="M91,41.24a8,8,0,1,0,8,8A8,8,0,0,0,91,41.24Z" fill="transparent" stroke="#304050" stroke-miterlimit="10" stroke-width="4"/><path d="M37,41.24a8,8,0,1,0,8,8A8,8,0,0,0,37,41.24Z" fill="transparent" stroke="#304050" stroke-miterlimit="10" stroke-width="4"/><path d="M63.66,34A11.18,11.18,0,1,0,74.84,45.22,11.19,11.19,0,0,0,63.66,34Z" fill="transparent" stroke="#304050" stroke-miterlimit="10" stroke-width="4"/><path d="M44.64,75.27a14.1,14.1,0,0,1,3.59-6.57,7.65,7.65,0,0,0-4.08-3.24,24,24,0,0,0-7-1.09H37a26,26,0,0,0-7.1,1.09,8.13,8.13,0,0,0-5.16,5.72l-1.31,7.87a28.2,28.2,0,0,0,20.14,2.69Z" fill="transparent" stroke="#304050" stroke-miterlimit="10" stroke-width="4"/><path d="M83,75.27s-1.32-7-8.07-9.44a36,36,0,0,0-11-1.8h-.11a38.74,38.74,0,0,0-11.12,1.8c-6.75,2.41-8.07,9.44-8.07,9.44l-2.06,13a42.33,42.33,0,0,0,42.5,0Z" fill="transparent" stroke="#304050" stroke-miterlimit="10" stroke-width="4"/></svg>