<svg xmlns="http://www.w3.org/2000/svg" width="72" height="20" viewBox="0 0 72 20"><title>Outlook_Avaya-Logo_72</title><polygon points="60.36 10.41 65.27 10.41 66.07 12.33 59.43 12.33 58.38 14.54 55.45 14.54 62.71 0 64.74 0 72 14.54 69.07 14.54 63.72 3.31 60.36 10.41" fill="#da291c"/><polygon points="4.91 10.41 9.82 10.41 10.62 12.33 3.99 12.33 2.93 14.54 0 14.54 7.26 0 9.29 0 16.55 14.54 13.63 14.54 8.28 3.31 4.91 10.41" fill="#da291c"/><polygon points="32.53 10.41 37.45 10.41 38.24 12.33 31.61 12.33 30.55 14.54 27.62 14.54 34.88 0 36.91 0 44.17 14.54 41.24 14.54 35.9 3.31 32.53 10.41" fill="#da291c"/><polygon points="13.82 0 21.08 14.54 21.2 14.54 22.98 14.54 23.11 14.54 30.37 0 27.44 0 22.09 11.44 16.74 0 13.82 0" fill="#da291c"/><polygon points="48.23 20 58.25 0 55.33 0 49.76 11.66 44.63 0 41.7 0 48.31 14.54 45.43 20 48.23 20" fill="#da291c"/><rect width="72" height="20" fill="none"/></svg>