<svg id="Layer_1" data-name="Layer 1" xmlns="http://www.w3.org/2000/svg" viewBox="0 0 204 72"><defs><style>.cls-1{fill:#da2a1b;}.cls-2{fill:#5e5f60;}</style></defs><title>equinox web logo</title><polygon class="cls-1" points="177.19 14.43 183.84 14.43 184.92 17.09 175.94 17.09 174.51 20.14 170.55 20.14 180.38 0 183.12 0 192.95 20.14 188.99 20.14 181.75 4.59 177.19 14.43"/><polygon class="cls-1" points="102.16 14.43 108.81 14.43 109.88 17.09 100.91 17.09 99.47 20.14 95.51 20.14 105.34 0 108.08 0 117.91 20.14 113.95 20.14 106.71 4.59 102.16 14.43"/><polygon class="cls-1" points="139.53 14.43 146.19 14.43 147.26 17.09 138.28 17.09 136.85 20.14 132.89 20.14 142.72 0 145.46 0 155.29 20.14 151.33 20.14 144.09 4.59 139.53 14.43"/><polygon class="cls-1" points="114.21 0 124.03 20.14 124.2 20.14 126.61 20.14 126.78 20.14 136.61 0 132.65 0 125.41 15.85 118.17 0 114.21 0"/><polygon class="cls-1" points="160.78 27.71 174.34 0 170.39 0 162.85 16.15 155.91 0 151.94 0 160.88 20.15 156.99 27.71 160.78 27.71"/><path class="cls-2" d="M-0.09,49.56V49.45c0-8,5.61-14.34,13-14.34,7.71,0,12.62,6.26,12.62,14.4a6.85,6.85,0,0,1-.05,1.08H2.71C3.2,57.43,8.11,61.42,13.5,61.42a12.35,12.35,0,0,0,9.44-4.31l1.83,1.62A14.46,14.46,0,0,1,13.39,63.9C6.17,63.9-.09,58.13-0.09,49.56Zm22.81-1.35c-0.38-5.55-3.56-10.68-9.87-10.68-5.45,0-9.65,4.58-10.14,10.68h20Z" transform="translate(0.09 0.11)"/><path class="cls-2" d="M54.26,57.11c-2.37,3.61-5.88,6.79-11.32,6.79-6.63,0-13.37-5.34-13.37-14.29V49.51c0-9,6.74-14.4,13.37-14.4,5.5,0,9.06,3.13,11.32,6.58V35.76h2.64V71.89H54.26V57.11Zm0.16-7.55V49.45A11.48,11.48,0,0,0,43.21,37.64c-6,0-10.79,4.37-10.79,11.76v0.11c0,7.23,5,11.86,10.79,11.86A11.52,11.52,0,0,0,54.43,49.56Z" transform="translate(0.09 0.11)"/><path class="cls-2" d="M64.45,52.58V35.76H67.1V52.09c0,5.66,3.18,9.38,8.74,9.38a9.43,9.43,0,0,0,9.54-9.81V35.76H88v27.5H85.38V58.13a10.77,10.77,0,0,1-9.92,5.77C68.5,63.9,64.45,59.16,64.45,52.58Z" transform="translate(0.09 0.11)"/><path class="cls-2" d="M96.16,25h3.29v3.61H96.16V25Zm0.32,10.79h2.64v27.5H96.48V35.76Z" transform="translate(0.09 0.11)"/><path class="cls-2" d="M107.59,35.76h2.64v5.12a10.77,10.77,0,0,1,9.92-5.77c7,0,11,4.75,11,11.32V63.26h-2.64V46.92c0-5.66-3.18-9.38-8.74-9.38a9.43,9.43,0,0,0-9.54,9.81V63.26h-2.64V35.76Z" transform="translate(0.09 0.11)"/><path class="cls-2" d="M136.81,49.61V49.51A14.21,14.21,0,0,1,151,35.11,14.06,14.06,0,0,1,165.07,49.4v0.11a14.21,14.21,0,0,1-14.18,14.4A14.06,14.06,0,0,1,136.81,49.61Zm25.4,0V49.51c0-6.63-5-11.92-11.32-11.92-6.53,0-11.22,5.34-11.22,11.81v0.11c0,6.63,5,11.92,11.32,11.92C157.52,61.42,162.21,56.08,162.21,49.61Z" transform="translate(0.09 0.11)"/><path class="cls-2" d="M178.07,49.24L167.23,35.76h3.29l9.27,11.65,9.27-11.65h3.18L181.41,49.18l11.27,14.07h-3.29L179.69,51,170,63.26H166.8Z" transform="translate(0.09 0.11)"/><path class="cls-2" d="M195.84,34.41H194V34.05h4v0.36h-1.83v4.88h-0.39V34.41Z" transform="translate(0.09 0.11)"/><path class="cls-2" d="M199,34.05h0.37l2.1,3.1,2.1-3.1h0.37v5.24h-0.39V34.74l-2.07,3h0l-2.07-3v4.55H199V34.05Z" transform="translate(0.09 0.11)"/></svg>