<?xml version="1.0" encoding="UTF-8" standalone="no"?>
<svg width="100px" height="100px" viewBox="0 0 100 100" version="1.1" xmlns="http://www.w3.org/2000/svg" xmlns:xlink="http://www.w3.org/1999/xlink">
    <!-- Generator: Sketch 40.2 (33826) - http://www.bohemiancoding.com/sketch -->
    <title>zang-spaces-icon</title>
    <desc>Created with Sketch.</desc>
    <defs></defs>
    <g id="ICONS" stroke="none" stroke-width="1" fill="none" fill-rule="evenodd">
        <g id="zang-spaces-icon">
            <g id="zang_spaces-clr-hs" transform="translate(26.000000, 13.000000)">
                <g id="Group">
                    <g id="Shape">
                        <path d="M24.0002857,34.7284846 C28.3728571,34.7284846 31.9311429,31.1824615 31.9311429,26.8244308 C31.9311429,22.4678231 28.3731429,18.9232231 24.0002857,18.9232231 C19.6268571,18.9232231 16.0685714,22.4675385 16.0685714,26.8244308 C16.0688571,31.1824615 19.6268571,34.7284846 24.0002857,34.7284846 L24.0002857,34.7284846 Z M24.0003527,21.4978495 C26.947999,21.4978495 29.3462857,23.886583 29.3462857,26.8242085 C29.3462857,29.7631503 26.9483293,32.1538582 24.0003527,32.1538582 C21.052376,32.1538582 18.6534286,29.7631503 18.6534286,26.8242085 C18.6534286,23.886912 21.052376,21.4978495 24.0003527,21.4978495 L24.0003527,21.4978495 Z" fill="#000000"></path>
                        <path d="M38.7631429,33.5368 C38.4754286,13.9811615 28.2894286,3.47743077 25.6537143,1.09235385 C25.6537143,1.09235385 24.9131429,0.253023077 24.0002857,0.253023077 C23.0871429,0.253023077 22.3468571,1.09235385 22.3468571,1.09235385 C19.7105714,3.47714615 9.52285714,13.9811615 9.23514286,33.5382231 C6.96428571,35.4821462 0.164,42.8494154 0.164,61.3488462 C0.164,62.0128538 0.564,62.6114 1.17885714,62.8681231 C1.38514286,62.9543615 1.60171429,62.9959154 1.81742857,62.9959154 C2.24314286,62.9959154 2.66142857,62.8319769 2.97685714,62.5228846 C5.31514286,60.2300231 12.388,54.2809923 16.9774286,54.2809923 L31.0217143,54.2809923 L31.0225714,54.2809923 L31.0234286,54.2809923 C35.6022857,54.2809923 42.682,60.2305923 45.0231429,62.5228846 C45.3385714,62.8319769 45.7577143,62.9959154 46.1828571,62.9959154 C46.3985714,62.9959154 46.616,62.9535077 46.822,62.8672692 C47.4362857,62.6105462 47.8362857,62.0125692 47.8362857,61.3485615 C47.8362857,42.8451462 41.0325714,35.4793 38.7631429,33.5368 L38.7631429,33.5368 Z M24.0031238,3.64142236 C25.2529631,4.88058337 27.3305713,7.18733428 29.4684286,10.5554776 L18.5515714,10.5554776 C20.6864817,7.19255317 22.7591783,4.88254046 24.0031238,3.64142236 L24.0031238,3.64142236 Z M17.1745221,12.8553572 L30.8452189,12.8553572 C33.5107062,18.0720656 35.8252857,25.2305358 35.8252857,34.4230652 C35.8252857,42.4766738 34.0178018,48.3752111 30.5904945,51.5408659 L17.4098333,51.5408659 C13.9810554,48.3743321 12.1735714,42.4757948 12.1735714,34.4230652 C12.1732773,25.2466512 14.4999165,18.0811489 17.1745221,12.8553572 L17.1745221,12.8553572 Z M14.409269,52.0432285 C10.1530922,53.362474 5.78137331,56.5073947 2.87101671,58.9118 C3.54994803,47.0535039 6.96543475,40.3434752 9.47090614,36.9515 C9.97896548,43.4024779 11.6395156,48.4431049 14.409269,52.0432285 Z M33.5918005,52.0438536 C36.3682046,48.4358358 38.030989,43.3794904 38.5333054,36.9026885 C41.0380553,40.2469026 44.4556936,46.920747 45.1284852,58.9127962 C42.218694,56.5087473 37.848151,53.3635202 33.5918005,52.0438536 L33.5918005,52.0438536 Z" fill="#000000"></path>
                        <path d="M24.0002857,58.5377 C23.0871429,58.5377 22.3468571,59.2751385 22.3468571,60.1847692 L22.3468571,72.2333923 C22.3468571,73.1430231 23.0871429,73.8804615 24.0002857,73.8804615 C24.9131429,73.8804615 25.6537143,73.1430231 25.6537143,72.2333923 L25.6537143,60.1847692 C25.654,59.2751385 24.9134286,58.5377 24.0002857,58.5377 L24.0002857,58.5377 Z" fill="#EF4234"></path>
                        <path d="M30.6277143,58.5377 C29.7148571,58.5377 28.9742857,59.2751385 28.9742857,60.1847692 L28.9742857,68.0586538 C28.9742857,68.968 29.7148571,69.7057231 30.6277143,69.7057231 C31.5408571,69.7057231 32.2811429,68.9682846 32.2811429,68.0586538 L32.2811429,60.1847692 C32.2811429,59.2751385 31.5408571,58.5377 30.6277143,58.5377 L30.6277143,58.5377 Z" fill="#EF4234"></path>
                        <path d="M17.3722857,58.5377 C16.4594286,58.5377 15.7188571,59.2751385 15.7188571,60.1847692 L15.7188571,68.0586538 C15.7188571,68.968 16.4594286,69.7057231 17.3722857,69.7057231 C18.2851429,69.7057231 19.0257143,68.9682846 19.0257143,68.0586538 L19.0257143,60.1847692 C19.0257143,59.2751385 18.2851429,58.5377 17.3722857,58.5377 L17.3722857,58.5377 Z" fill="#EF4234"></path>
                    </g>
                </g>
            </g>
        </g>
    </g>
</svg>